<svg width="41" height="48" viewBox="0 0 36 36" fill="none" xmlns="http://www.w3.org/2000/svg" class="svg-icon">
  <path d="M35.756 21.128C35.756 26.024 34.124 29.64 30.86 31.976C27.628 34.312 23.308 35.48 17.9 35.48C12.492 35.48 8.156 34.312 4.892 31.976C1.66 29.64 0.0440001 25.992 0.0440001 21.032V15.368C0.0440001 12.104 0.812 9.4 2.348 7.256C3.916 5.08 6.044 3.48 8.732 2.456C11.42 1.432 14.476 0.919998 17.9 0.919998C21.324 0.919998 24.364 1.432 27.02 2.456C29.708 3.48 31.836 5.064 33.404 7.208C34.972 9.352 35.756 12.04 35.756 15.272V21.128ZM13.004 22.04C13.004 23.352 13.436 24.36 14.3 25.064C15.196 25.768 16.396 26.12 17.9 26.12C19.404 26.12 20.588 25.768 21.452 25.064C22.348 24.328 22.796 23.304 22.796 21.992V14.408C22.796 13.096 22.348 12.088 21.452 11.384C20.588 10.648 19.404 10.28 17.9 10.28C16.396 10.28 15.196 10.632 14.3 11.336C13.436 12.04 13.004 13.048 13.004 14.36V22.04Z" fill="currentColor"/>
</svg>