<svg width="41" height="48" viewBox="0 0 37 34" fill="none" xmlns="http://www.w3.org/2000/svg">
<path d="M36.708 32.416C36.804 32.512 36.852 32.64 36.852 32.8C36.852 33.12 36.74 33.408 36.516 33.664C36.324 33.888 36.084 34 35.796 34H25.476C24.612 34 23.956 33.632 23.508 32.896L18.852 25.744L14.292 32.896C13.812 33.632 13.156 34 12.324 34H1.956C1.668 34 1.412 33.904 1.188 33.712C0.996 33.488 0.9 33.232 0.9 32.944V32.8C0.9 32.64 0.948 32.512 1.044 32.416L11.652 16.192L2.196 1.984C2.1 1.856 2.052 1.68 2.052 1.456C2.052 1.168 2.148 0.927999 2.34 0.735999C2.564 0.511998 2.82 0.399998 3.108 0.399998H13.476C14.308 0.399998 14.98 0.799998 15.492 1.6L19.236 7.744L23.268 1.504C23.492 1.216 23.732 0.959998 23.988 0.735999C24.276 0.511998 24.692 0.399998 25.236 0.399998H35.556C35.844 0.399998 36.084 0.511998 36.276 0.735999C36.5 0.927999 36.612 1.168 36.612 1.456V1.6C36.612 1.76 36.564 1.888 36.468 1.984L26.436 16.816L36.708 32.416Z" fill="#0F172A"/>
</svg>
